# xmcd
#
# Track frame offsets: 
#        150
#        13227
#        28229
#        43232
#        58432
#        76484
#        91357
#        106844
#        123597
#        137393
#        152850
#        167432
#        181980
#        196499
#
# Disc length: 2852 seconds
#
# Revision: 0
# Processed by: cddbd v1.5.2PL0 Copyright (c) Steve Scherf et al.
# Submitted via: ExactAudioCopyFreeDBPlugin 1.0
#
DISCID=c00b220e
DTITLE=Kelsea Ballerini - The First Time [Deluxe Edition]
DYEAR=2015
DGENRE=Pop Country
TTITLE0=01 XO
TTITLE1=02 Peter Pan
TTITLE2=03 Love Me Like You Mean It
TTITLE3=04 Square Pegs
TTITLE4=05 The First Time
TTITLE5=06 Looking At Stars
TTITLE6=07 Sirens
TTITLE7=08 Secondhand Smoke
TTITLE8=09 Dibs
TTITLE9=10 Stilettos
TTITLE10=11 Yeah Boy
TTITLE11=12 Underage
TTITLE12=13 Yeah Boy [Acoustic]
TTITLE13=14 Out Of The Blues [Acoustic]
EXTD=
EXTT0=
EXTT1=
EXTT2=
EXTT3=
EXTT4=
EXTT5=
EXTT6=
EXTT7=
EXTT8=
EXTT9=
EXTT10=
EXTT11=
EXTT12=
EXTT13=
PLAYORDER=
